<mxfile host="app.diagrams.net" modified="2024-05-03T19:51:52.356Z" agent="Mozilla/5.0 (Macintosh; Intel Mac OS X 10_15_7) AppleWebKit/605.1.15 (KHTML, like Gecko) Version/17.4.1 Safari/605.1.15" etag="JkxmRYunVMJ4rr7GbkYK" version="24.3.1" type="github">
  <diagram id="prtHgNgQTEPvFCAcTncT" name="Page-1">
    <mxGraphModel dx="2712" dy="1039" grid="1" gridSize="10" guides="1" tooltips="1" connect="1" arrows="1" fold="1" page="0" pageScale="1" pageWidth="827" pageHeight="1169" background="#E6E6E6" math="0" shadow="0">
      <root>
        <mxCell id="0" />
        <mxCell id="1" parent="0" />
        <mxCell id="AK11A_lTFDKfyhDP3cZT-3" value="" style="rounded=1;whiteSpace=wrap;html=1;sketch=1;shadow=1;fillColor=#d5e8d4;strokeColor=#82b366;" parent="1" vertex="1">
          <mxGeometry x="-440" y="149.38" width="1340" height="810" as="geometry" />
        </mxCell>
        <mxCell id="AK11A_lTFDKfyhDP3cZT-4" value="&lt;font style=&quot;font-size: 20px&quot;&gt;NHSN Production&lt;/font&gt;" style="ellipse;whiteSpace=wrap;html=1;shadow=1;sketch=1;fillColor=none;fontFamily=Comic Sans MS;" parent="1" vertex="1">
          <mxGeometry x="135" y="156.75" width="190" height="69.09" as="geometry" />
        </mxCell>
        <mxCell id="5J4Xi7Saij2xZedNtAwr-1" value="" style="rounded=1;whiteSpace=wrap;html=1;sketch=1;shadow=1;fillColor=#d5e8d4;strokeColor=#82b366;" parent="1" vertex="1">
          <mxGeometry x="-420" y="1020" width="1340" height="810" as="geometry" />
        </mxCell>
        <mxCell id="5J4Xi7Saij2xZedNtAwr-2" value="" style="rounded=1;whiteSpace=wrap;html=1;fillColor=#ffe6cc;shadow=1;strokeColor=#d79b00;align=left;" parent="1" vertex="1">
          <mxGeometry x="-230" y="1313.1399999999999" width="180" height="213.74" as="geometry" />
        </mxCell>
        <mxCell id="5J4Xi7Saij2xZedNtAwr-3" style="edgeStyle=orthogonalEdgeStyle;rounded=0;orthogonalLoop=1;jettySize=auto;html=1;exitX=1;exitY=0.5;exitDx=0;exitDy=0;entryX=0;entryY=0.5;entryDx=0;entryDy=0;strokeColor=#8A8A8A;strokeWidth=2;" parent="1" source="5J4Xi7Saij2xZedNtAwr-4" target="5J4Xi7Saij2xZedNtAwr-22" edge="1">
          <mxGeometry relative="1" as="geometry" />
        </mxCell>
        <mxCell id="5J4Xi7Saij2xZedNtAwr-4" value="FHIR Inbound" style="rounded=1;whiteSpace=wrap;html=1;fillColor=#d5e8d4;strokeColor=#82b366;shadow=1;" parent="1" vertex="1">
          <mxGeometry x="-190" y="1395" width="120" height="60" as="geometry" />
        </mxCell>
        <mxCell id="5J4Xi7Saij2xZedNtAwr-5" value="FHIR Processor" style="rounded=1;whiteSpace=wrap;html=1;fillColor=#d5e8d4;strokeColor=#82b366;shadow=1;" parent="1" vertex="1">
          <mxGeometry x="135" y="1135.62" width="120" height="60" as="geometry" />
        </mxCell>
        <mxCell id="5J4Xi7Saij2xZedNtAwr-6" style="edgeStyle=orthogonalEdgeStyle;rounded=0;orthogonalLoop=1;jettySize=auto;html=1;exitX=1;exitY=0.5;exitDx=0;exitDy=0;entryX=0;entryY=0.5;entryDx=0;entryDy=0;strokeColor=#8A8A8A;strokeWidth=2;" parent="1" source="5J4Xi7Saij2xZedNtAwr-7" target="5J4Xi7Saij2xZedNtAwr-60" edge="1">
          <mxGeometry relative="1" as="geometry" />
        </mxCell>
        <mxCell id="5J4Xi7Saij2xZedNtAwr-7" value="" style="rounded=0;whiteSpace=wrap;html=1;shadow=1;strokeColor=#b85450;fillColor=#f8cecc;" parent="1" vertex="1">
          <mxGeometry x="320" y="1104.37" width="360" height="122.5" as="geometry" />
        </mxCell>
        <mxCell id="5J4Xi7Saij2xZedNtAwr-8" value="JSON Parser" style="rounded=1;whiteSpace=wrap;html=1;fillColor=#d5e8d4;strokeColor=#82b366;shadow=1;" parent="1" vertex="1">
          <mxGeometry x="345" y="1135.62" width="120" height="60" as="geometry" />
        </mxCell>
        <mxCell id="5J4Xi7Saij2xZedNtAwr-9" value="Profile" style="rounded=1;whiteSpace=wrap;html=1;fillColor=#d5e8d4;strokeColor=#82b366;shadow=1;" parent="1" vertex="1">
          <mxGeometry x="520" y="1120.63" width="120" height="60" as="geometry" />
        </mxCell>
        <mxCell id="5J4Xi7Saij2xZedNtAwr-10" style="edgeStyle=orthogonalEdgeStyle;rounded=0;orthogonalLoop=1;jettySize=auto;html=1;exitX=0.5;exitY=1;exitDx=0;exitDy=0;strokeColor=#000000;" parent="1" source="5J4Xi7Saij2xZedNtAwr-9" target="5J4Xi7Saij2xZedNtAwr-9" edge="1">
          <mxGeometry relative="1" as="geometry" />
        </mxCell>
        <mxCell id="5J4Xi7Saij2xZedNtAwr-11" value="" style="shape=cross;whiteSpace=wrap;html=1;rounded=0;fillColor=#f5f5f5;strokeColor=#666666;fontColor=#333333;" parent="1" vertex="1">
          <mxGeometry x="485" y="1151.25" width="30" height="28.75" as="geometry" />
        </mxCell>
        <mxCell id="5J4Xi7Saij2xZedNtAwr-12" style="edgeStyle=orthogonalEdgeStyle;rounded=0;orthogonalLoop=1;jettySize=auto;html=1;exitX=1;exitY=0.5;exitDx=0;exitDy=0;entryX=0;entryY=0.5;entryDx=0;entryDy=0;strokeWidth=2;strokeColor=#8A8A8A;" parent="1" source="5J4Xi7Saij2xZedNtAwr-13" target="5J4Xi7Saij2xZedNtAwr-4" edge="1">
          <mxGeometry relative="1" as="geometry" />
        </mxCell>
        <mxCell id="5J4Xi7Saij2xZedNtAwr-13" value="Facility&lt;br&gt;1" style="rounded=1;whiteSpace=wrap;html=1;fillColor=#e1d5e7;shadow=1;strokeColor=#9673a6;" parent="1" vertex="1">
          <mxGeometry x="-330" y="1040.62" width="90" height="240" as="geometry" />
        </mxCell>
        <mxCell id="5J4Xi7Saij2xZedNtAwr-14" style="edgeStyle=orthogonalEdgeStyle;rounded=0;orthogonalLoop=1;jettySize=auto;html=1;exitX=1;exitY=0.5;exitDx=0;exitDy=0;strokeWidth=2;strokeColor=#8A8A8A;" parent="1" source="5J4Xi7Saij2xZedNtAwr-15" edge="1">
          <mxGeometry relative="1" as="geometry">
            <mxPoint x="-190" y="1424.62" as="targetPoint" />
          </mxGeometry>
        </mxCell>
        <mxCell id="5J4Xi7Saij2xZedNtAwr-15" value="Facility&lt;br&gt;2" style="rounded=1;whiteSpace=wrap;html=1;fillColor=#e1d5e7;shadow=1;strokeColor=#9673a6;" parent="1" vertex="1">
          <mxGeometry x="-330" y="1305" width="90" height="240" as="geometry" />
        </mxCell>
        <mxCell id="5J4Xi7Saij2xZedNtAwr-16" style="edgeStyle=orthogonalEdgeStyle;rounded=0;orthogonalLoop=1;jettySize=auto;html=1;exitX=1;exitY=0.5;exitDx=0;exitDy=0;entryX=0;entryY=0.5;entryDx=0;entryDy=0;strokeWidth=2;strokeColor=#8A8A8A;" parent="1" source="5J4Xi7Saij2xZedNtAwr-17" target="5J4Xi7Saij2xZedNtAwr-4" edge="1">
          <mxGeometry relative="1" as="geometry" />
        </mxCell>
        <mxCell id="5J4Xi7Saij2xZedNtAwr-17" value="Facility&lt;br&gt;3" style="rounded=1;whiteSpace=wrap;html=1;fillColor=#e1d5e7;shadow=1;strokeColor=#9673a6;" parent="1" vertex="1">
          <mxGeometry x="-330" y="1570.62" width="90" height="240" as="geometry" />
        </mxCell>
        <mxCell id="5J4Xi7Saij2xZedNtAwr-18" style="edgeStyle=orthogonalEdgeStyle;rounded=0;orthogonalLoop=1;jettySize=auto;html=1;exitX=1;exitY=0.5;exitDx=0;exitDy=0;entryX=0;entryY=0.5;entryDx=0;entryDy=0;strokeColor=#8A8A8A;strokeWidth=2;" parent="1" source="5J4Xi7Saij2xZedNtAwr-22" target="5J4Xi7Saij2xZedNtAwr-5" edge="1">
          <mxGeometry relative="1" as="geometry" />
        </mxCell>
        <mxCell id="5J4Xi7Saij2xZedNtAwr-19" style="edgeStyle=orthogonalEdgeStyle;rounded=0;orthogonalLoop=1;jettySize=auto;html=1;exitX=1;exitY=0.5;exitDx=0;exitDy=0;entryX=0;entryY=0.5;entryDx=0;entryDy=0;strokeColor=#8A8A8A;strokeWidth=2;" parent="1" source="5J4Xi7Saij2xZedNtAwr-22" target="5J4Xi7Saij2xZedNtAwr-27" edge="1">
          <mxGeometry relative="1" as="geometry" />
        </mxCell>
        <mxCell id="5J4Xi7Saij2xZedNtAwr-20" style="edgeStyle=orthogonalEdgeStyle;rounded=0;orthogonalLoop=1;jettySize=auto;html=1;exitX=1;exitY=0.5;exitDx=0;exitDy=0;entryX=0;entryY=0.5;entryDx=0;entryDy=0;strokeColor=#8A8A8A;strokeWidth=2;" parent="1" source="5J4Xi7Saij2xZedNtAwr-22" target="5J4Xi7Saij2xZedNtAwr-38" edge="1">
          <mxGeometry relative="1" as="geometry" />
        </mxCell>
        <mxCell id="5J4Xi7Saij2xZedNtAwr-21" style="edgeStyle=orthogonalEdgeStyle;rounded=0;orthogonalLoop=1;jettySize=auto;html=1;exitX=1;exitY=0.5;exitDx=0;exitDy=0;entryX=0;entryY=0.5;entryDx=0;entryDy=0;strokeColor=#8A8A8A;strokeWidth=2;" parent="1" source="5J4Xi7Saij2xZedNtAwr-22" target="5J4Xi7Saij2xZedNtAwr-49" edge="1">
          <mxGeometry relative="1" as="geometry" />
        </mxCell>
        <mxCell id="5J4Xi7Saij2xZedNtAwr-22" value="FHIR Router" style="rounded=1;whiteSpace=wrap;html=1;fillColor=#d5e8d4;strokeColor=#82b366;shadow=1;" parent="1" vertex="1">
          <mxGeometry x="-30" y="1395" width="120" height="60" as="geometry" />
        </mxCell>
        <mxCell id="5J4Xi7Saij2xZedNtAwr-23" value="Profile" style="rounded=1;whiteSpace=wrap;html=1;fillColor=#d5e8d4;strokeColor=#82b366;shadow=1;" parent="1" vertex="1">
          <mxGeometry x="530" y="1130.63" width="120" height="60" as="geometry" />
        </mxCell>
        <mxCell id="5J4Xi7Saij2xZedNtAwr-24" value="Profile" style="rounded=1;whiteSpace=wrap;html=1;fillColor=#d5e8d4;strokeColor=#82b366;shadow=1;" parent="1" vertex="1">
          <mxGeometry x="540" y="1140.63" width="120" height="60" as="geometry" />
        </mxCell>
        <mxCell id="5J4Xi7Saij2xZedNtAwr-25" value="Profile" style="rounded=1;whiteSpace=wrap;html=1;fillColor=#d5e8d4;strokeColor=#82b366;shadow=1;" parent="1" vertex="1">
          <mxGeometry x="550" y="1150.63" width="120" height="60" as="geometry" />
        </mxCell>
        <mxCell id="5J4Xi7Saij2xZedNtAwr-26" value="" style="endArrow=none;dashed=1;html=1;dashPattern=1 3;strokeWidth=2;exitX=1;exitY=0.5;exitDx=0;exitDy=0;entryX=0;entryY=0.5;entryDx=0;entryDy=0;" parent="1" source="5J4Xi7Saij2xZedNtAwr-5" target="5J4Xi7Saij2xZedNtAwr-7" edge="1">
          <mxGeometry width="50" height="50" relative="1" as="geometry">
            <mxPoint x="440" y="1470.62" as="sourcePoint" />
            <mxPoint x="490" y="1420.62" as="targetPoint" />
          </mxGeometry>
        </mxCell>
        <mxCell id="5J4Xi7Saij2xZedNtAwr-27" value="FHIR Processor" style="rounded=1;whiteSpace=wrap;html=1;fillColor=#d5e8d4;strokeColor=#82b366;shadow=1;" parent="1" vertex="1">
          <mxGeometry x="135" y="1291.87" width="120" height="60" as="geometry" />
        </mxCell>
        <mxCell id="5J4Xi7Saij2xZedNtAwr-28" style="edgeStyle=orthogonalEdgeStyle;rounded=0;orthogonalLoop=1;jettySize=auto;html=1;exitX=1;exitY=0.5;exitDx=0;exitDy=0;entryX=0;entryY=0.5;entryDx=0;entryDy=0;strokeColor=#8A8A8A;strokeWidth=2;" parent="1" source="5J4Xi7Saij2xZedNtAwr-29" target="5J4Xi7Saij2xZedNtAwr-60" edge="1">
          <mxGeometry relative="1" as="geometry" />
        </mxCell>
        <mxCell id="5J4Xi7Saij2xZedNtAwr-29" value="" style="rounded=0;whiteSpace=wrap;html=1;shadow=1;strokeColor=#b85450;fillColor=#f8cecc;" parent="1" vertex="1">
          <mxGeometry x="320" y="1260.62" width="360" height="122.5" as="geometry" />
        </mxCell>
        <mxCell id="5J4Xi7Saij2xZedNtAwr-30" value="JSON Parser" style="rounded=1;whiteSpace=wrap;html=1;fillColor=#d5e8d4;strokeColor=#82b366;shadow=1;" parent="1" vertex="1">
          <mxGeometry x="345" y="1291.87" width="120" height="60" as="geometry" />
        </mxCell>
        <mxCell id="5J4Xi7Saij2xZedNtAwr-31" value="Profile" style="rounded=1;whiteSpace=wrap;html=1;fillColor=#d5e8d4;strokeColor=#82b366;shadow=1;" parent="1" vertex="1">
          <mxGeometry x="520" y="1276.88" width="120" height="60" as="geometry" />
        </mxCell>
        <mxCell id="5J4Xi7Saij2xZedNtAwr-32" style="edgeStyle=orthogonalEdgeStyle;rounded=0;orthogonalLoop=1;jettySize=auto;html=1;exitX=0.5;exitY=1;exitDx=0;exitDy=0;strokeColor=#000000;" parent="1" source="5J4Xi7Saij2xZedNtAwr-31" target="5J4Xi7Saij2xZedNtAwr-31" edge="1">
          <mxGeometry relative="1" as="geometry" />
        </mxCell>
        <mxCell id="5J4Xi7Saij2xZedNtAwr-33" value="" style="shape=cross;whiteSpace=wrap;html=1;rounded=0;fillColor=#f5f5f5;strokeColor=#666666;fontColor=#333333;" parent="1" vertex="1">
          <mxGeometry x="485" y="1307.5" width="30" height="28.75" as="geometry" />
        </mxCell>
        <mxCell id="5J4Xi7Saij2xZedNtAwr-34" value="Profile" style="rounded=1;whiteSpace=wrap;html=1;fillColor=#d5e8d4;strokeColor=#82b366;shadow=1;" parent="1" vertex="1">
          <mxGeometry x="530" y="1286.88" width="120" height="60" as="geometry" />
        </mxCell>
        <mxCell id="5J4Xi7Saij2xZedNtAwr-35" value="Profile" style="rounded=1;whiteSpace=wrap;html=1;fillColor=#d5e8d4;strokeColor=#82b366;shadow=1;" parent="1" vertex="1">
          <mxGeometry x="540" y="1296.88" width="120" height="60" as="geometry" />
        </mxCell>
        <mxCell id="5J4Xi7Saij2xZedNtAwr-36" value="Profile" style="rounded=1;whiteSpace=wrap;html=1;fillColor=#d5e8d4;strokeColor=#82b366;shadow=1;" parent="1" vertex="1">
          <mxGeometry x="550" y="1306.88" width="120" height="60" as="geometry" />
        </mxCell>
        <mxCell id="5J4Xi7Saij2xZedNtAwr-37" value="" style="endArrow=none;dashed=1;html=1;dashPattern=1 3;strokeWidth=2;exitX=1;exitY=0.5;exitDx=0;exitDy=0;entryX=0;entryY=0.5;entryDx=0;entryDy=0;" parent="1" source="5J4Xi7Saij2xZedNtAwr-27" target="5J4Xi7Saij2xZedNtAwr-29" edge="1">
          <mxGeometry width="50" height="50" relative="1" as="geometry">
            <mxPoint x="440" y="1626.87" as="sourcePoint" />
            <mxPoint x="490" y="1576.87" as="targetPoint" />
          </mxGeometry>
        </mxCell>
        <mxCell id="5J4Xi7Saij2xZedNtAwr-38" value="FHIR Processor" style="rounded=1;whiteSpace=wrap;html=1;fillColor=#d5e8d4;strokeColor=#82b366;shadow=1;" parent="1" vertex="1">
          <mxGeometry x="135" y="1461.87" width="120" height="60" as="geometry" />
        </mxCell>
        <mxCell id="5J4Xi7Saij2xZedNtAwr-39" style="edgeStyle=orthogonalEdgeStyle;rounded=0;orthogonalLoop=1;jettySize=auto;html=1;exitX=1;exitY=0.5;exitDx=0;exitDy=0;entryX=0;entryY=0.5;entryDx=0;entryDy=0;strokeColor=#8A8A8A;strokeWidth=2;" parent="1" source="5J4Xi7Saij2xZedNtAwr-40" target="5J4Xi7Saij2xZedNtAwr-60" edge="1">
          <mxGeometry relative="1" as="geometry" />
        </mxCell>
        <mxCell id="5J4Xi7Saij2xZedNtAwr-40" value="" style="rounded=0;whiteSpace=wrap;html=1;shadow=1;strokeColor=#b85450;fillColor=#f8cecc;" parent="1" vertex="1">
          <mxGeometry x="320" y="1430.62" width="360" height="122.5" as="geometry" />
        </mxCell>
        <mxCell id="5J4Xi7Saij2xZedNtAwr-41" value="JSON Parser" style="rounded=1;whiteSpace=wrap;html=1;fillColor=#d5e8d4;strokeColor=#82b366;shadow=1;" parent="1" vertex="1">
          <mxGeometry x="345" y="1461.87" width="120" height="60" as="geometry" />
        </mxCell>
        <mxCell id="5J4Xi7Saij2xZedNtAwr-42" value="Profile" style="rounded=1;whiteSpace=wrap;html=1;fillColor=#d5e8d4;strokeColor=#82b366;shadow=1;" parent="1" vertex="1">
          <mxGeometry x="520" y="1446.88" width="120" height="60" as="geometry" />
        </mxCell>
        <mxCell id="5J4Xi7Saij2xZedNtAwr-43" style="edgeStyle=orthogonalEdgeStyle;rounded=0;orthogonalLoop=1;jettySize=auto;html=1;exitX=0.5;exitY=1;exitDx=0;exitDy=0;strokeColor=#000000;" parent="1" source="5J4Xi7Saij2xZedNtAwr-42" target="5J4Xi7Saij2xZedNtAwr-42" edge="1">
          <mxGeometry relative="1" as="geometry" />
        </mxCell>
        <mxCell id="5J4Xi7Saij2xZedNtAwr-44" value="" style="shape=cross;whiteSpace=wrap;html=1;rounded=0;fillColor=#f5f5f5;strokeColor=#666666;fontColor=#333333;" parent="1" vertex="1">
          <mxGeometry x="485" y="1477.5" width="30" height="28.75" as="geometry" />
        </mxCell>
        <mxCell id="5J4Xi7Saij2xZedNtAwr-45" value="Profile" style="rounded=1;whiteSpace=wrap;html=1;fillColor=#d5e8d4;strokeColor=#82b366;shadow=1;" parent="1" vertex="1">
          <mxGeometry x="530" y="1456.88" width="120" height="60" as="geometry" />
        </mxCell>
        <mxCell id="5J4Xi7Saij2xZedNtAwr-46" value="Profile" style="rounded=1;whiteSpace=wrap;html=1;fillColor=#d5e8d4;strokeColor=#82b366;shadow=1;" parent="1" vertex="1">
          <mxGeometry x="540" y="1466.88" width="120" height="60" as="geometry" />
        </mxCell>
        <mxCell id="5J4Xi7Saij2xZedNtAwr-47" value="Profile" style="rounded=1;whiteSpace=wrap;html=1;fillColor=#d5e8d4;strokeColor=#82b366;shadow=1;" parent="1" vertex="1">
          <mxGeometry x="550" y="1476.88" width="120" height="60" as="geometry" />
        </mxCell>
        <mxCell id="5J4Xi7Saij2xZedNtAwr-48" value="" style="endArrow=none;dashed=1;html=1;dashPattern=1 3;strokeWidth=2;exitX=1;exitY=0.5;exitDx=0;exitDy=0;entryX=0;entryY=0.5;entryDx=0;entryDy=0;" parent="1" source="5J4Xi7Saij2xZedNtAwr-38" target="5J4Xi7Saij2xZedNtAwr-40" edge="1">
          <mxGeometry width="50" height="50" relative="1" as="geometry">
            <mxPoint x="440" y="1796.87" as="sourcePoint" />
            <mxPoint x="490" y="1746.87" as="targetPoint" />
          </mxGeometry>
        </mxCell>
        <mxCell id="5J4Xi7Saij2xZedNtAwr-49" value="FHIR Processor" style="rounded=1;whiteSpace=wrap;html=1;fillColor=#d5e8d4;strokeColor=#82b366;shadow=1;" parent="1" vertex="1">
          <mxGeometry x="135" y="1621.87" width="120" height="60" as="geometry" />
        </mxCell>
        <mxCell id="5J4Xi7Saij2xZedNtAwr-50" style="edgeStyle=orthogonalEdgeStyle;rounded=0;orthogonalLoop=1;jettySize=auto;html=1;exitX=1;exitY=0.5;exitDx=0;exitDy=0;entryX=0;entryY=0.5;entryDx=0;entryDy=0;strokeColor=#8A8A8A;strokeWidth=2;" parent="1" source="5J4Xi7Saij2xZedNtAwr-51" target="5J4Xi7Saij2xZedNtAwr-60" edge="1">
          <mxGeometry relative="1" as="geometry" />
        </mxCell>
        <mxCell id="5J4Xi7Saij2xZedNtAwr-51" value="" style="rounded=0;whiteSpace=wrap;html=1;shadow=1;strokeColor=#b85450;fillColor=#f8cecc;" parent="1" vertex="1">
          <mxGeometry x="320" y="1590.62" width="360" height="122.5" as="geometry" />
        </mxCell>
        <mxCell id="5J4Xi7Saij2xZedNtAwr-52" value="JSON Parser" style="rounded=1;whiteSpace=wrap;html=1;fillColor=#d5e8d4;strokeColor=#82b366;shadow=1;" parent="1" vertex="1">
          <mxGeometry x="345" y="1621.87" width="120" height="60" as="geometry" />
        </mxCell>
        <mxCell id="5J4Xi7Saij2xZedNtAwr-53" value="Profile" style="rounded=1;whiteSpace=wrap;html=1;fillColor=#d5e8d4;strokeColor=#82b366;shadow=1;" parent="1" vertex="1">
          <mxGeometry x="520" y="1606.88" width="120" height="60" as="geometry" />
        </mxCell>
        <mxCell id="5J4Xi7Saij2xZedNtAwr-54" style="edgeStyle=orthogonalEdgeStyle;rounded=0;orthogonalLoop=1;jettySize=auto;html=1;exitX=0.5;exitY=1;exitDx=0;exitDy=0;strokeColor=#000000;" parent="1" source="5J4Xi7Saij2xZedNtAwr-53" target="5J4Xi7Saij2xZedNtAwr-53" edge="1">
          <mxGeometry relative="1" as="geometry" />
        </mxCell>
        <mxCell id="5J4Xi7Saij2xZedNtAwr-55" value="" style="shape=cross;whiteSpace=wrap;html=1;rounded=0;fillColor=#f5f5f5;strokeColor=#666666;fontColor=#333333;" parent="1" vertex="1">
          <mxGeometry x="485" y="1637.5" width="30" height="28.75" as="geometry" />
        </mxCell>
        <mxCell id="5J4Xi7Saij2xZedNtAwr-56" value="Profile" style="rounded=1;whiteSpace=wrap;html=1;fillColor=#d5e8d4;strokeColor=#82b366;shadow=1;" parent="1" vertex="1">
          <mxGeometry x="530" y="1616.88" width="120" height="60" as="geometry" />
        </mxCell>
        <mxCell id="5J4Xi7Saij2xZedNtAwr-57" value="Profile" style="rounded=1;whiteSpace=wrap;html=1;fillColor=#d5e8d4;strokeColor=#82b366;shadow=1;" parent="1" vertex="1">
          <mxGeometry x="540" y="1626.88" width="120" height="60" as="geometry" />
        </mxCell>
        <mxCell id="5J4Xi7Saij2xZedNtAwr-58" value="Profile" style="rounded=1;whiteSpace=wrap;html=1;fillColor=#d5e8d4;strokeColor=#82b366;shadow=1;" parent="1" vertex="1">
          <mxGeometry x="550" y="1636.88" width="120" height="60" as="geometry" />
        </mxCell>
        <mxCell id="5J4Xi7Saij2xZedNtAwr-59" value="" style="endArrow=none;dashed=1;html=1;dashPattern=1 3;strokeWidth=2;exitX=1;exitY=0.5;exitDx=0;exitDy=0;entryX=0;entryY=0.5;entryDx=0;entryDy=0;" parent="1" source="5J4Xi7Saij2xZedNtAwr-49" target="5J4Xi7Saij2xZedNtAwr-51" edge="1">
          <mxGeometry width="50" height="50" relative="1" as="geometry">
            <mxPoint x="440" y="1956.87" as="sourcePoint" />
            <mxPoint x="490" y="1906.87" as="targetPoint" />
          </mxGeometry>
        </mxCell>
        <mxCell id="5J4Xi7Saij2xZedNtAwr-60" value="FHIR Outbound" style="rounded=1;whiteSpace=wrap;html=1;fillColor=#d5e8d4;strokeColor=#82b366;shadow=1;" parent="1" vertex="1">
          <mxGeometry x="760" y="1395" width="120" height="60" as="geometry" />
        </mxCell>
        <mxCell id="5J4Xi7Saij2xZedNtAwr-61" value="FHIR&lt;br&gt;Server" style="text;html=1;strokeColor=none;fillColor=none;align=center;verticalAlign=middle;whiteSpace=wrap;rounded=0;" parent="1" vertex="1">
          <mxGeometry x="-160" y="1326.62" width="40" height="20" as="geometry" />
        </mxCell>
        <mxCell id="5J4Xi7Saij2xZedNtAwr-62" value="&lt;font style=&quot;font-size: 20px&quot;&gt;Modernization&lt;/font&gt;&lt;div&gt;&lt;font style=&quot;font-size: 20px&quot;&gt;App&lt;/font&gt;&lt;/div&gt;" style="ellipse;whiteSpace=wrap;html=1;shadow=1;sketch=1;fillColor=none;fontFamily=Comic Sans MS;" parent="1" vertex="1">
          <mxGeometry x="155" y="1027.37" width="190" height="69.09" as="geometry" />
        </mxCell>
        <mxCell id="5J4Xi7Saij2xZedNtAwr-63" value="" style="rounded=1;whiteSpace=wrap;html=1;sketch=1;shadow=1;fillColor=#d5e8d4;strokeColor=#82b366;" parent="1" vertex="1">
          <mxGeometry x="1040" y="1015.0099999999999" width="1340" height="810" as="geometry" />
        </mxCell>
        <mxCell id="5J4Xi7Saij2xZedNtAwr-64" value="" style="rounded=1;whiteSpace=wrap;html=1;fillColor=#ffe6cc;shadow=1;strokeColor=#d79b00;align=left;" parent="1" vertex="1">
          <mxGeometry x="1230" y="1308.1499999999999" width="180" height="213.74" as="geometry" />
        </mxCell>
        <mxCell id="5J4Xi7Saij2xZedNtAwr-65" style="edgeStyle=orthogonalEdgeStyle;rounded=0;orthogonalLoop=1;jettySize=auto;html=1;exitX=1;exitY=0.5;exitDx=0;exitDy=0;entryX=0;entryY=0.5;entryDx=0;entryDy=0;strokeColor=#8A8A8A;strokeWidth=2;" parent="1" source="5J4Xi7Saij2xZedNtAwr-66" target="5J4Xi7Saij2xZedNtAwr-84" edge="1">
          <mxGeometry relative="1" as="geometry" />
        </mxCell>
        <mxCell id="5J4Xi7Saij2xZedNtAwr-66" value="FHIR Inbound" style="rounded=1;whiteSpace=wrap;html=1;fillColor=#d5e8d4;strokeColor=#82b366;shadow=1;" parent="1" vertex="1">
          <mxGeometry x="1270" y="1390.01" width="120" height="60" as="geometry" />
        </mxCell>
        <mxCell id="5J4Xi7Saij2xZedNtAwr-67" value="FHIR Processor" style="rounded=1;whiteSpace=wrap;html=1;fillColor=#d5e8d4;strokeColor=#82b366;shadow=1;" parent="1" vertex="1">
          <mxGeometry x="1595" y="1130.6299999999999" width="120" height="60" as="geometry" />
        </mxCell>
        <mxCell id="5J4Xi7Saij2xZedNtAwr-68" style="edgeStyle=orthogonalEdgeStyle;rounded=0;orthogonalLoop=1;jettySize=auto;html=1;exitX=1;exitY=0.5;exitDx=0;exitDy=0;entryX=0;entryY=0.5;entryDx=0;entryDy=0;strokeColor=#8A8A8A;strokeWidth=2;" parent="1" source="5J4Xi7Saij2xZedNtAwr-69" target="5J4Xi7Saij2xZedNtAwr-122" edge="1">
          <mxGeometry relative="1" as="geometry" />
        </mxCell>
        <mxCell id="5J4Xi7Saij2xZedNtAwr-69" value="" style="rounded=0;whiteSpace=wrap;html=1;shadow=1;strokeColor=#b85450;fillColor=#f8cecc;" parent="1" vertex="1">
          <mxGeometry x="1780" y="1099.3799999999999" width="360" height="122.5" as="geometry" />
        </mxCell>
        <mxCell id="5J4Xi7Saij2xZedNtAwr-70" value="JSON Parser" style="rounded=1;whiteSpace=wrap;html=1;fillColor=#d5e8d4;strokeColor=#82b366;shadow=1;" parent="1" vertex="1">
          <mxGeometry x="1805" y="1130.6299999999999" width="120" height="60" as="geometry" />
        </mxCell>
        <mxCell id="5J4Xi7Saij2xZedNtAwr-71" value="Profile" style="rounded=1;whiteSpace=wrap;html=1;fillColor=#d5e8d4;strokeColor=#82b366;shadow=1;" parent="1" vertex="1">
          <mxGeometry x="1980" y="1115.64" width="120" height="60" as="geometry" />
        </mxCell>
        <mxCell id="5J4Xi7Saij2xZedNtAwr-72" style="edgeStyle=orthogonalEdgeStyle;rounded=0;orthogonalLoop=1;jettySize=auto;html=1;exitX=0.5;exitY=1;exitDx=0;exitDy=0;strokeColor=#000000;" parent="1" source="5J4Xi7Saij2xZedNtAwr-71" target="5J4Xi7Saij2xZedNtAwr-71" edge="1">
          <mxGeometry relative="1" as="geometry" />
        </mxCell>
        <mxCell id="5J4Xi7Saij2xZedNtAwr-73" value="" style="shape=cross;whiteSpace=wrap;html=1;rounded=0;fillColor=#f5f5f5;strokeColor=#666666;fontColor=#333333;" parent="1" vertex="1">
          <mxGeometry x="1945" y="1146.26" width="30" height="28.75" as="geometry" />
        </mxCell>
        <mxCell id="5J4Xi7Saij2xZedNtAwr-74" style="edgeStyle=orthogonalEdgeStyle;rounded=0;orthogonalLoop=1;jettySize=auto;html=1;exitX=1;exitY=0.5;exitDx=0;exitDy=0;entryX=0;entryY=0.5;entryDx=0;entryDy=0;strokeWidth=2;strokeColor=#8A8A8A;" parent="1" source="5J4Xi7Saij2xZedNtAwr-75" target="5J4Xi7Saij2xZedNtAwr-66" edge="1">
          <mxGeometry relative="1" as="geometry" />
        </mxCell>
        <mxCell id="5J4Xi7Saij2xZedNtAwr-75" value="Facility&lt;br&gt;1" style="rounded=1;whiteSpace=wrap;html=1;fillColor=#e1d5e7;shadow=1;strokeColor=#9673a6;" parent="1" vertex="1">
          <mxGeometry x="1130" y="1035.6299999999999" width="90" height="240" as="geometry" />
        </mxCell>
        <mxCell id="5J4Xi7Saij2xZedNtAwr-76" style="edgeStyle=orthogonalEdgeStyle;rounded=0;orthogonalLoop=1;jettySize=auto;html=1;exitX=1;exitY=0.5;exitDx=0;exitDy=0;strokeWidth=2;strokeColor=#8A8A8A;" parent="1" source="5J4Xi7Saij2xZedNtAwr-77" edge="1">
          <mxGeometry relative="1" as="geometry">
            <mxPoint x="1270" y="1419.6299999999999" as="targetPoint" />
          </mxGeometry>
        </mxCell>
        <mxCell id="5J4Xi7Saij2xZedNtAwr-77" value="Facility&lt;br&gt;2" style="rounded=1;whiteSpace=wrap;html=1;fillColor=#e1d5e7;shadow=1;strokeColor=#9673a6;" parent="1" vertex="1">
          <mxGeometry x="1130" y="1300.01" width="90" height="240" as="geometry" />
        </mxCell>
        <mxCell id="5J4Xi7Saij2xZedNtAwr-78" style="edgeStyle=orthogonalEdgeStyle;rounded=0;orthogonalLoop=1;jettySize=auto;html=1;exitX=1;exitY=0.5;exitDx=0;exitDy=0;entryX=0;entryY=0.5;entryDx=0;entryDy=0;strokeWidth=2;strokeColor=#8A8A8A;" parent="1" source="5J4Xi7Saij2xZedNtAwr-79" target="5J4Xi7Saij2xZedNtAwr-66" edge="1">
          <mxGeometry relative="1" as="geometry" />
        </mxCell>
        <mxCell id="5J4Xi7Saij2xZedNtAwr-79" value="Facility&lt;br&gt;3" style="rounded=1;whiteSpace=wrap;html=1;fillColor=#e1d5e7;shadow=1;strokeColor=#9673a6;" parent="1" vertex="1">
          <mxGeometry x="1130" y="1565.6299999999999" width="90" height="240" as="geometry" />
        </mxCell>
        <mxCell id="5J4Xi7Saij2xZedNtAwr-80" style="edgeStyle=orthogonalEdgeStyle;rounded=0;orthogonalLoop=1;jettySize=auto;html=1;exitX=1;exitY=0.5;exitDx=0;exitDy=0;entryX=0;entryY=0.5;entryDx=0;entryDy=0;strokeColor=#8A8A8A;strokeWidth=2;" parent="1" source="5J4Xi7Saij2xZedNtAwr-84" target="5J4Xi7Saij2xZedNtAwr-67" edge="1">
          <mxGeometry relative="1" as="geometry" />
        </mxCell>
        <mxCell id="5J4Xi7Saij2xZedNtAwr-81" style="edgeStyle=orthogonalEdgeStyle;rounded=0;orthogonalLoop=1;jettySize=auto;html=1;exitX=1;exitY=0.5;exitDx=0;exitDy=0;entryX=0;entryY=0.5;entryDx=0;entryDy=0;strokeColor=#8A8A8A;strokeWidth=2;" parent="1" source="5J4Xi7Saij2xZedNtAwr-84" target="5J4Xi7Saij2xZedNtAwr-89" edge="1">
          <mxGeometry relative="1" as="geometry" />
        </mxCell>
        <mxCell id="5J4Xi7Saij2xZedNtAwr-82" style="edgeStyle=orthogonalEdgeStyle;rounded=0;orthogonalLoop=1;jettySize=auto;html=1;exitX=1;exitY=0.5;exitDx=0;exitDy=0;entryX=0;entryY=0.5;entryDx=0;entryDy=0;strokeColor=#8A8A8A;strokeWidth=2;" parent="1" source="5J4Xi7Saij2xZedNtAwr-84" target="5J4Xi7Saij2xZedNtAwr-100" edge="1">
          <mxGeometry relative="1" as="geometry" />
        </mxCell>
        <mxCell id="5J4Xi7Saij2xZedNtAwr-83" style="edgeStyle=orthogonalEdgeStyle;rounded=0;orthogonalLoop=1;jettySize=auto;html=1;exitX=1;exitY=0.5;exitDx=0;exitDy=0;entryX=0;entryY=0.5;entryDx=0;entryDy=0;strokeColor=#8A8A8A;strokeWidth=2;" parent="1" source="5J4Xi7Saij2xZedNtAwr-84" target="5J4Xi7Saij2xZedNtAwr-111" edge="1">
          <mxGeometry relative="1" as="geometry" />
        </mxCell>
        <mxCell id="5J4Xi7Saij2xZedNtAwr-84" value="FHIR Router" style="rounded=1;whiteSpace=wrap;html=1;fillColor=#d5e8d4;strokeColor=#82b366;shadow=1;" parent="1" vertex="1">
          <mxGeometry x="1430" y="1390.01" width="120" height="60" as="geometry" />
        </mxCell>
        <mxCell id="5J4Xi7Saij2xZedNtAwr-85" value="Profile" style="rounded=1;whiteSpace=wrap;html=1;fillColor=#d5e8d4;strokeColor=#82b366;shadow=1;" parent="1" vertex="1">
          <mxGeometry x="1990" y="1125.64" width="120" height="60" as="geometry" />
        </mxCell>
        <mxCell id="5J4Xi7Saij2xZedNtAwr-86" value="Profile" style="rounded=1;whiteSpace=wrap;html=1;fillColor=#d5e8d4;strokeColor=#82b366;shadow=1;" parent="1" vertex="1">
          <mxGeometry x="2000" y="1135.64" width="120" height="60" as="geometry" />
        </mxCell>
        <mxCell id="5J4Xi7Saij2xZedNtAwr-87" value="Profile" style="rounded=1;whiteSpace=wrap;html=1;fillColor=#d5e8d4;strokeColor=#82b366;shadow=1;" parent="1" vertex="1">
          <mxGeometry x="2010" y="1145.64" width="120" height="60" as="geometry" />
        </mxCell>
        <mxCell id="5J4Xi7Saij2xZedNtAwr-88" value="" style="endArrow=none;dashed=1;html=1;dashPattern=1 3;strokeWidth=2;exitX=1;exitY=0.5;exitDx=0;exitDy=0;entryX=0;entryY=0.5;entryDx=0;entryDy=0;" parent="1" source="5J4Xi7Saij2xZedNtAwr-67" target="5J4Xi7Saij2xZedNtAwr-69" edge="1">
          <mxGeometry width="50" height="50" relative="1" as="geometry">
            <mxPoint x="1900" y="1465.6299999999999" as="sourcePoint" />
            <mxPoint x="1950" y="1415.6299999999999" as="targetPoint" />
          </mxGeometry>
        </mxCell>
        <mxCell id="5J4Xi7Saij2xZedNtAwr-89" value="FHIR Processor" style="rounded=1;whiteSpace=wrap;html=1;fillColor=#d5e8d4;strokeColor=#82b366;shadow=1;" parent="1" vertex="1">
          <mxGeometry x="1595" y="1286.8799999999999" width="120" height="60" as="geometry" />
        </mxCell>
        <mxCell id="5J4Xi7Saij2xZedNtAwr-90" style="edgeStyle=orthogonalEdgeStyle;rounded=0;orthogonalLoop=1;jettySize=auto;html=1;exitX=1;exitY=0.5;exitDx=0;exitDy=0;entryX=0;entryY=0.5;entryDx=0;entryDy=0;strokeColor=#8A8A8A;strokeWidth=2;" parent="1" source="5J4Xi7Saij2xZedNtAwr-91" target="5J4Xi7Saij2xZedNtAwr-122" edge="1">
          <mxGeometry relative="1" as="geometry" />
        </mxCell>
        <mxCell id="5J4Xi7Saij2xZedNtAwr-91" value="" style="rounded=0;whiteSpace=wrap;html=1;shadow=1;strokeColor=#b85450;fillColor=#f8cecc;" parent="1" vertex="1">
          <mxGeometry x="1780" y="1255.6299999999999" width="360" height="122.5" as="geometry" />
        </mxCell>
        <mxCell id="5J4Xi7Saij2xZedNtAwr-92" value="JSON Parser" style="rounded=1;whiteSpace=wrap;html=1;fillColor=#d5e8d4;strokeColor=#82b366;shadow=1;" parent="1" vertex="1">
          <mxGeometry x="1805" y="1286.8799999999999" width="120" height="60" as="geometry" />
        </mxCell>
        <mxCell id="5J4Xi7Saij2xZedNtAwr-93" value="Profile" style="rounded=1;whiteSpace=wrap;html=1;fillColor=#d5e8d4;strokeColor=#82b366;shadow=1;" parent="1" vertex="1">
          <mxGeometry x="1980" y="1271.89" width="120" height="60" as="geometry" />
        </mxCell>
        <mxCell id="5J4Xi7Saij2xZedNtAwr-94" style="edgeStyle=orthogonalEdgeStyle;rounded=0;orthogonalLoop=1;jettySize=auto;html=1;exitX=0.5;exitY=1;exitDx=0;exitDy=0;strokeColor=#000000;" parent="1" source="5J4Xi7Saij2xZedNtAwr-93" target="5J4Xi7Saij2xZedNtAwr-93" edge="1">
          <mxGeometry relative="1" as="geometry" />
        </mxCell>
        <mxCell id="5J4Xi7Saij2xZedNtAwr-95" value="" style="shape=cross;whiteSpace=wrap;html=1;rounded=0;fillColor=#f5f5f5;strokeColor=#666666;fontColor=#333333;" parent="1" vertex="1">
          <mxGeometry x="1945" y="1302.51" width="30" height="28.75" as="geometry" />
        </mxCell>
        <mxCell id="5J4Xi7Saij2xZedNtAwr-96" value="Profile" style="rounded=1;whiteSpace=wrap;html=1;fillColor=#d5e8d4;strokeColor=#82b366;shadow=1;" parent="1" vertex="1">
          <mxGeometry x="1990" y="1281.89" width="120" height="60" as="geometry" />
        </mxCell>
        <mxCell id="5J4Xi7Saij2xZedNtAwr-97" value="Profile" style="rounded=1;whiteSpace=wrap;html=1;fillColor=#d5e8d4;strokeColor=#82b366;shadow=1;" parent="1" vertex="1">
          <mxGeometry x="2000" y="1291.89" width="120" height="60" as="geometry" />
        </mxCell>
        <mxCell id="5J4Xi7Saij2xZedNtAwr-98" value="Profile" style="rounded=1;whiteSpace=wrap;html=1;fillColor=#d5e8d4;strokeColor=#82b366;shadow=1;" parent="1" vertex="1">
          <mxGeometry x="2010" y="1301.89" width="120" height="60" as="geometry" />
        </mxCell>
        <mxCell id="5J4Xi7Saij2xZedNtAwr-99" value="" style="endArrow=none;dashed=1;html=1;dashPattern=1 3;strokeWidth=2;exitX=1;exitY=0.5;exitDx=0;exitDy=0;entryX=0;entryY=0.5;entryDx=0;entryDy=0;" parent="1" source="5J4Xi7Saij2xZedNtAwr-89" target="5J4Xi7Saij2xZedNtAwr-91" edge="1">
          <mxGeometry width="50" height="50" relative="1" as="geometry">
            <mxPoint x="1900" y="1621.8799999999999" as="sourcePoint" />
            <mxPoint x="1950" y="1571.8799999999999" as="targetPoint" />
          </mxGeometry>
        </mxCell>
        <mxCell id="5J4Xi7Saij2xZedNtAwr-100" value="FHIR Processor" style="rounded=1;whiteSpace=wrap;html=1;fillColor=#d5e8d4;strokeColor=#82b366;shadow=1;" parent="1" vertex="1">
          <mxGeometry x="1595" y="1456.8799999999999" width="120" height="60" as="geometry" />
        </mxCell>
        <mxCell id="5J4Xi7Saij2xZedNtAwr-101" style="edgeStyle=orthogonalEdgeStyle;rounded=0;orthogonalLoop=1;jettySize=auto;html=1;exitX=1;exitY=0.5;exitDx=0;exitDy=0;entryX=0;entryY=0.5;entryDx=0;entryDy=0;strokeColor=#8A8A8A;strokeWidth=2;" parent="1" source="5J4Xi7Saij2xZedNtAwr-102" target="5J4Xi7Saij2xZedNtAwr-122" edge="1">
          <mxGeometry relative="1" as="geometry" />
        </mxCell>
        <mxCell id="5J4Xi7Saij2xZedNtAwr-102" value="" style="rounded=0;whiteSpace=wrap;html=1;shadow=1;strokeColor=#b85450;fillColor=#f8cecc;" parent="1" vertex="1">
          <mxGeometry x="1780" y="1425.6299999999999" width="360" height="122.5" as="geometry" />
        </mxCell>
        <mxCell id="5J4Xi7Saij2xZedNtAwr-103" value="JSON Parser" style="rounded=1;whiteSpace=wrap;html=1;fillColor=#d5e8d4;strokeColor=#82b366;shadow=1;" parent="1" vertex="1">
          <mxGeometry x="1805" y="1456.8799999999999" width="120" height="60" as="geometry" />
        </mxCell>
        <mxCell id="5J4Xi7Saij2xZedNtAwr-104" value="Profile" style="rounded=1;whiteSpace=wrap;html=1;fillColor=#d5e8d4;strokeColor=#82b366;shadow=1;" parent="1" vertex="1">
          <mxGeometry x="1980" y="1441.89" width="120" height="60" as="geometry" />
        </mxCell>
        <mxCell id="5J4Xi7Saij2xZedNtAwr-105" style="edgeStyle=orthogonalEdgeStyle;rounded=0;orthogonalLoop=1;jettySize=auto;html=1;exitX=0.5;exitY=1;exitDx=0;exitDy=0;strokeColor=#000000;" parent="1" source="5J4Xi7Saij2xZedNtAwr-104" target="5J4Xi7Saij2xZedNtAwr-104" edge="1">
          <mxGeometry relative="1" as="geometry" />
        </mxCell>
        <mxCell id="5J4Xi7Saij2xZedNtAwr-106" value="" style="shape=cross;whiteSpace=wrap;html=1;rounded=0;fillColor=#f5f5f5;strokeColor=#666666;fontColor=#333333;" parent="1" vertex="1">
          <mxGeometry x="1945" y="1472.51" width="30" height="28.75" as="geometry" />
        </mxCell>
        <mxCell id="5J4Xi7Saij2xZedNtAwr-107" value="Profile" style="rounded=1;whiteSpace=wrap;html=1;fillColor=#d5e8d4;strokeColor=#82b366;shadow=1;" parent="1" vertex="1">
          <mxGeometry x="1990" y="1451.89" width="120" height="60" as="geometry" />
        </mxCell>
        <mxCell id="5J4Xi7Saij2xZedNtAwr-108" value="Profile" style="rounded=1;whiteSpace=wrap;html=1;fillColor=#d5e8d4;strokeColor=#82b366;shadow=1;" parent="1" vertex="1">
          <mxGeometry x="2000" y="1461.89" width="120" height="60" as="geometry" />
        </mxCell>
        <mxCell id="5J4Xi7Saij2xZedNtAwr-109" value="Profile" style="rounded=1;whiteSpace=wrap;html=1;fillColor=#d5e8d4;strokeColor=#82b366;shadow=1;" parent="1" vertex="1">
          <mxGeometry x="2010" y="1471.89" width="120" height="60" as="geometry" />
        </mxCell>
        <mxCell id="5J4Xi7Saij2xZedNtAwr-110" value="" style="endArrow=none;dashed=1;html=1;dashPattern=1 3;strokeWidth=2;exitX=1;exitY=0.5;exitDx=0;exitDy=0;entryX=0;entryY=0.5;entryDx=0;entryDy=0;" parent="1" source="5J4Xi7Saij2xZedNtAwr-100" target="5J4Xi7Saij2xZedNtAwr-102" edge="1">
          <mxGeometry width="50" height="50" relative="1" as="geometry">
            <mxPoint x="1900" y="1791.8799999999999" as="sourcePoint" />
            <mxPoint x="1950" y="1741.8799999999999" as="targetPoint" />
          </mxGeometry>
        </mxCell>
        <mxCell id="5J4Xi7Saij2xZedNtAwr-111" value="FHIR Processor" style="rounded=1;whiteSpace=wrap;html=1;fillColor=#d5e8d4;strokeColor=#82b366;shadow=1;" parent="1" vertex="1">
          <mxGeometry x="1595" y="1616.8799999999999" width="120" height="60" as="geometry" />
        </mxCell>
        <mxCell id="5J4Xi7Saij2xZedNtAwr-112" style="edgeStyle=orthogonalEdgeStyle;rounded=0;orthogonalLoop=1;jettySize=auto;html=1;exitX=1;exitY=0.5;exitDx=0;exitDy=0;entryX=0;entryY=0.5;entryDx=0;entryDy=0;strokeColor=#8A8A8A;strokeWidth=2;" parent="1" source="5J4Xi7Saij2xZedNtAwr-113" target="5J4Xi7Saij2xZedNtAwr-122" edge="1">
          <mxGeometry relative="1" as="geometry" />
        </mxCell>
        <mxCell id="5J4Xi7Saij2xZedNtAwr-113" value="" style="rounded=0;whiteSpace=wrap;html=1;shadow=1;strokeColor=#b85450;fillColor=#f8cecc;" parent="1" vertex="1">
          <mxGeometry x="1780" y="1585.6299999999999" width="360" height="122.5" as="geometry" />
        </mxCell>
        <mxCell id="5J4Xi7Saij2xZedNtAwr-114" value="JSON Parser" style="rounded=1;whiteSpace=wrap;html=1;fillColor=#d5e8d4;strokeColor=#82b366;shadow=1;" parent="1" vertex="1">
          <mxGeometry x="1805" y="1616.8799999999999" width="120" height="60" as="geometry" />
        </mxCell>
        <mxCell id="5J4Xi7Saij2xZedNtAwr-115" value="Profile" style="rounded=1;whiteSpace=wrap;html=1;fillColor=#d5e8d4;strokeColor=#82b366;shadow=1;" parent="1" vertex="1">
          <mxGeometry x="1980" y="1601.89" width="120" height="60" as="geometry" />
        </mxCell>
        <mxCell id="5J4Xi7Saij2xZedNtAwr-116" style="edgeStyle=orthogonalEdgeStyle;rounded=0;orthogonalLoop=1;jettySize=auto;html=1;exitX=0.5;exitY=1;exitDx=0;exitDy=0;strokeColor=#000000;" parent="1" source="5J4Xi7Saij2xZedNtAwr-115" target="5J4Xi7Saij2xZedNtAwr-115" edge="1">
          <mxGeometry relative="1" as="geometry" />
        </mxCell>
        <mxCell id="5J4Xi7Saij2xZedNtAwr-117" value="" style="shape=cross;whiteSpace=wrap;html=1;rounded=0;fillColor=#f5f5f5;strokeColor=#666666;fontColor=#333333;" parent="1" vertex="1">
          <mxGeometry x="1945" y="1632.51" width="30" height="28.75" as="geometry" />
        </mxCell>
        <mxCell id="5J4Xi7Saij2xZedNtAwr-118" value="Profile" style="rounded=1;whiteSpace=wrap;html=1;fillColor=#d5e8d4;strokeColor=#82b366;shadow=1;" parent="1" vertex="1">
          <mxGeometry x="1990" y="1611.89" width="120" height="60" as="geometry" />
        </mxCell>
        <mxCell id="5J4Xi7Saij2xZedNtAwr-119" value="Profile" style="rounded=1;whiteSpace=wrap;html=1;fillColor=#d5e8d4;strokeColor=#82b366;shadow=1;" parent="1" vertex="1">
          <mxGeometry x="2000" y="1621.89" width="120" height="60" as="geometry" />
        </mxCell>
        <mxCell id="5J4Xi7Saij2xZedNtAwr-120" value="Profile" style="rounded=1;whiteSpace=wrap;html=1;fillColor=#d5e8d4;strokeColor=#82b366;shadow=1;" parent="1" vertex="1">
          <mxGeometry x="2010" y="1631.89" width="120" height="60" as="geometry" />
        </mxCell>
        <mxCell id="5J4Xi7Saij2xZedNtAwr-121" value="" style="endArrow=none;dashed=1;html=1;dashPattern=1 3;strokeWidth=2;exitX=1;exitY=0.5;exitDx=0;exitDy=0;entryX=0;entryY=0.5;entryDx=0;entryDy=0;" parent="1" source="5J4Xi7Saij2xZedNtAwr-111" target="5J4Xi7Saij2xZedNtAwr-113" edge="1">
          <mxGeometry width="50" height="50" relative="1" as="geometry">
            <mxPoint x="1900" y="1951.8799999999999" as="sourcePoint" />
            <mxPoint x="1950" y="1901.8799999999999" as="targetPoint" />
          </mxGeometry>
        </mxCell>
        <mxCell id="5J4Xi7Saij2xZedNtAwr-122" value="FHIR Outbound" style="rounded=1;whiteSpace=wrap;html=1;fillColor=#d5e8d4;strokeColor=#82b366;shadow=1;" parent="1" vertex="1">
          <mxGeometry x="2220" y="1390.01" width="120" height="60" as="geometry" />
        </mxCell>
        <mxCell id="5J4Xi7Saij2xZedNtAwr-123" value="FHIR&lt;br&gt;Server" style="text;html=1;strokeColor=none;fillColor=none;align=center;verticalAlign=middle;whiteSpace=wrap;rounded=0;" parent="1" vertex="1">
          <mxGeometry x="1300" y="1321.6299999999999" width="40" height="20" as="geometry" />
        </mxCell>
        <mxCell id="5J4Xi7Saij2xZedNtAwr-124" value="&lt;font style=&quot;font-size: 20px&quot;&gt;Modernization&lt;/font&gt;&lt;div&gt;&lt;font style=&quot;font-size: 20px&quot;&gt;Data&lt;/font&gt;&lt;/div&gt;" style="ellipse;whiteSpace=wrap;html=1;shadow=1;sketch=1;fillColor=none;fontFamily=Comic Sans MS;" parent="1" vertex="1">
          <mxGeometry x="1615" y="1022.3799999999998" width="190" height="69.09" as="geometry" />
        </mxCell>
        <mxCell id="tp5nq1VoE5CaEKhNv_x4-1" value="" style="rounded=0;whiteSpace=wrap;html=1;shadow=1;strokeColor=#b85450;fillColor=#f8cecc;" vertex="1" parent="1">
          <mxGeometry x="-40" y="550" width="710" height="320" as="geometry" />
        </mxCell>
        <mxCell id="tp5nq1VoE5CaEKhNv_x4-3" value="Profile" style="rounded=1;whiteSpace=wrap;html=1;fillColor=#d5e8d4;strokeColor=#82b366;shadow=1;" vertex="1" parent="1">
          <mxGeometry x="-20" y="561.27" width="120" height="60" as="geometry" />
        </mxCell>
        <mxCell id="tp5nq1VoE5CaEKhNv_x4-4" style="edgeStyle=orthogonalEdgeStyle;rounded=0;orthogonalLoop=1;jettySize=auto;html=1;exitX=0.5;exitY=1;exitDx=0;exitDy=0;strokeColor=#000000;" edge="1" parent="1" source="tp5nq1VoE5CaEKhNv_x4-3" target="tp5nq1VoE5CaEKhNv_x4-3">
          <mxGeometry relative="1" as="geometry" />
        </mxCell>
        <mxCell id="tp5nq1VoE5CaEKhNv_x4-6" value="Profile" style="rounded=1;whiteSpace=wrap;html=1;fillColor=#d5e8d4;strokeColor=#82b366;shadow=1;" vertex="1" parent="1">
          <mxGeometry x="-10" y="571.27" width="120" height="60" as="geometry" />
        </mxCell>
        <mxCell id="tp5nq1VoE5CaEKhNv_x4-7" value="Profile" style="rounded=1;whiteSpace=wrap;html=1;fillColor=#d5e8d4;strokeColor=#82b366;shadow=1;" vertex="1" parent="1">
          <mxGeometry y="581.27" width="120" height="60" as="geometry" />
        </mxCell>
        <mxCell id="tp5nq1VoE5CaEKhNv_x4-8" value="BV" style="rounded=1;whiteSpace=wrap;html=1;fillColor=#d5e8d4;strokeColor=#82b366;shadow=1;" vertex="1" parent="1">
          <mxGeometry x="10" y="591.27" width="120" height="60" as="geometry" />
        </mxCell>
        <mxCell id="tp5nq1VoE5CaEKhNv_x4-10" value="Profile" style="rounded=1;whiteSpace=wrap;html=1;fillColor=#d5e8d4;strokeColor=#82b366;shadow=1;" vertex="1" parent="1">
          <mxGeometry x="170" y="566.27" width="120" height="60" as="geometry" />
        </mxCell>
        <mxCell id="tp5nq1VoE5CaEKhNv_x4-11" style="edgeStyle=orthogonalEdgeStyle;rounded=0;orthogonalLoop=1;jettySize=auto;html=1;exitX=0.5;exitY=1;exitDx=0;exitDy=0;strokeColor=#000000;" edge="1" parent="1" source="tp5nq1VoE5CaEKhNv_x4-10" target="tp5nq1VoE5CaEKhNv_x4-10">
          <mxGeometry relative="1" as="geometry" />
        </mxCell>
        <mxCell id="tp5nq1VoE5CaEKhNv_x4-12" value="Profile" style="rounded=1;whiteSpace=wrap;html=1;fillColor=#d5e8d4;strokeColor=#82b366;shadow=1;" vertex="1" parent="1">
          <mxGeometry x="180" y="576.27" width="120" height="60" as="geometry" />
        </mxCell>
        <mxCell id="tp5nq1VoE5CaEKhNv_x4-13" value="Profile" style="rounded=1;whiteSpace=wrap;html=1;fillColor=#d5e8d4;strokeColor=#82b366;shadow=1;" vertex="1" parent="1">
          <mxGeometry x="190" y="586.27" width="120" height="60" as="geometry" />
        </mxCell>
        <mxCell id="tp5nq1VoE5CaEKhNv_x4-14" value="DIAL" style="rounded=1;whiteSpace=wrap;html=1;fillColor=#d5e8d4;strokeColor=#82b366;shadow=1;" vertex="1" parent="1">
          <mxGeometry x="200" y="596.27" width="120" height="60" as="geometry" />
        </mxCell>
        <mxCell id="tp5nq1VoE5CaEKhNv_x4-20" value="" style="group" vertex="1" connectable="0" parent="1">
          <mxGeometry x="365" y="571.27" width="150" height="90" as="geometry" />
        </mxCell>
        <mxCell id="tp5nq1VoE5CaEKhNv_x4-15" value="Profile" style="rounded=1;whiteSpace=wrap;html=1;fillColor=#d5e8d4;strokeColor=#82b366;shadow=1;" vertex="1" parent="tp5nq1VoE5CaEKhNv_x4-20">
          <mxGeometry width="120" height="60" as="geometry" />
        </mxCell>
        <mxCell id="tp5nq1VoE5CaEKhNv_x4-16" style="edgeStyle=orthogonalEdgeStyle;rounded=0;orthogonalLoop=1;jettySize=auto;html=1;exitX=0.5;exitY=1;exitDx=0;exitDy=0;strokeColor=#000000;" edge="1" parent="tp5nq1VoE5CaEKhNv_x4-20" source="tp5nq1VoE5CaEKhNv_x4-15" target="tp5nq1VoE5CaEKhNv_x4-15">
          <mxGeometry relative="1" as="geometry" />
        </mxCell>
        <mxCell id="tp5nq1VoE5CaEKhNv_x4-17" value="Profile" style="rounded=1;whiteSpace=wrap;html=1;fillColor=#d5e8d4;strokeColor=#82b366;shadow=1;" vertex="1" parent="tp5nq1VoE5CaEKhNv_x4-20">
          <mxGeometry x="10" y="10" width="120" height="60" as="geometry" />
        </mxCell>
        <mxCell id="tp5nq1VoE5CaEKhNv_x4-18" value="Profile" style="rounded=1;whiteSpace=wrap;html=1;fillColor=#d5e8d4;strokeColor=#82b366;shadow=1;" vertex="1" parent="tp5nq1VoE5CaEKhNv_x4-20">
          <mxGeometry x="20" y="20" width="120" height="60" as="geometry" />
        </mxCell>
        <mxCell id="tp5nq1VoE5CaEKhNv_x4-19" value="PS" style="rounded=1;whiteSpace=wrap;html=1;fillColor=#d5e8d4;strokeColor=#82b366;shadow=1;" vertex="1" parent="tp5nq1VoE5CaEKhNv_x4-20">
          <mxGeometry x="30" y="30" width="120" height="60" as="geometry" />
        </mxCell>
        <mxCell id="tp5nq1VoE5CaEKhNv_x4-22" value="" style="group" vertex="1" connectable="0" parent="1">
          <mxGeometry x="-20" y="690" width="150" height="90" as="geometry" />
        </mxCell>
        <mxCell id="tp5nq1VoE5CaEKhNv_x4-23" value="Profile" style="rounded=1;whiteSpace=wrap;html=1;fillColor=#d5e8d4;strokeColor=#82b366;shadow=1;" vertex="1" parent="tp5nq1VoE5CaEKhNv_x4-22">
          <mxGeometry width="120" height="60" as="geometry" />
        </mxCell>
        <mxCell id="tp5nq1VoE5CaEKhNv_x4-24" style="edgeStyle=orthogonalEdgeStyle;rounded=0;orthogonalLoop=1;jettySize=auto;html=1;exitX=0.5;exitY=1;exitDx=0;exitDy=0;strokeColor=#000000;" edge="1" parent="tp5nq1VoE5CaEKhNv_x4-22" source="tp5nq1VoE5CaEKhNv_x4-23" target="tp5nq1VoE5CaEKhNv_x4-23">
          <mxGeometry relative="1" as="geometry" />
        </mxCell>
        <mxCell id="tp5nq1VoE5CaEKhNv_x4-25" value="Profile" style="rounded=1;whiteSpace=wrap;html=1;fillColor=#d5e8d4;strokeColor=#82b366;shadow=1;" vertex="1" parent="tp5nq1VoE5CaEKhNv_x4-22">
          <mxGeometry x="10" y="10" width="120" height="60" as="geometry" />
        </mxCell>
        <mxCell id="tp5nq1VoE5CaEKhNv_x4-26" value="Profile" style="rounded=1;whiteSpace=wrap;html=1;fillColor=#d5e8d4;strokeColor=#82b366;shadow=1;" vertex="1" parent="tp5nq1VoE5CaEKhNv_x4-22">
          <mxGeometry x="20" y="20" width="120" height="60" as="geometry" />
        </mxCell>
        <mxCell id="tp5nq1VoE5CaEKhNv_x4-27" value="NEO&lt;span style=&quot;caret-color: rgba(0, 0, 0, 0); color: rgba(0, 0, 0, 0); font-family: monospace; font-size: 0px; text-align: start; white-space: nowrap;&quot;&gt;%3CmxGraphModel%3E%3Croot%3E%3CmxCell%20id%3D%220%22%2F%3E%3CmxCell%20id%3D%221%22%20parent%3D%220%22%2F%3E%3CmxCell%20id%3D%222%22%20value%3D%22%22%20style%3D%22group%22%20vertex%3D%221%22%20connectable%3D%220%22%20parent%3D%221%22%3E%3CmxGeometry%20x%3D%22365%22%20y%3D%22571.27%22%20width%3D%22150%22%20height%3D%2290%22%20as%3D%22geometry%22%2F%3E%3C%2FmxCell%3E%3CmxCell%20id%3D%223%22%20value%3D%22Profile%22%20style%3D%22rounded%3D1%3BwhiteSpace%3Dwrap%3Bhtml%3D1%3BfillColor%3D%23d5e8d4%3BstrokeColor%3D%2382b366%3Bshadow%3D1%3B%22%20vertex%3D%221%22%20parent%3D%222%22%3E%3CmxGeometry%20width%3D%22120%22%20height%3D%2260%22%20as%3D%22geometry%22%2F%3E%3C%2FmxCell%3E%3CmxCell%20id%3D%224%22%20style%3D%22edgeStyle%3DorthogonalEdgeStyle%3Brounded%3D0%3BorthogonalLoop%3D1%3BjettySize%3Dauto%3Bhtml%3D1%3BexitX%3D0.5%3BexitY%3D1%3BexitDx%3D0%3BexitDy%3D0%3BstrokeColor%3D%23000000%3B%22%20edge%3D%221%22%20parent%3D%222%22%20source%3D%223%22%20target%3D%223%22%3E%3CmxGeometry%20relative%3D%221%22%20as%3D%22geometry%22%2F%3E%3C%2FmxCell%3E%3CmxCell%20id%3D%225%22%20value%3D%22Profile%22%20style%3D%22rounded%3D1%3BwhiteSpace%3Dwrap%3Bhtml%3D1%3BfillColor%3D%23d5e8d4%3BstrokeColor%3D%2382b366%3Bshadow%3D1%3B%22%20vertex%3D%221%22%20parent%3D%222%22%3E%3CmxGeometry%20x%3D%2210%22%20y%3D%2210%22%20width%3D%22120%22%20height%3D%2260%22%20as%3D%22geometry%22%2F%3E%3C%2FmxCell%3E%3CmxCell%20id%3D%226%22%20value%3D%22Profile%22%20style%3D%22rounded%3D1%3BwhiteSpace%3Dwrap%3Bhtml%3D1%3BfillColor%3D%23d5e8d4%3BstrokeColor%3D%2382b366%3Bshadow%3D1%3B%22%20vertex%3D%221%22%20parent%3D%222%22%3E%3CmxGeometry%20x%3D%2220%22%20y%3D%2220%22%20width%3D%22120%22%20height%3D%2260%22%20as%3D%22geometry%22%2F%3E%3C%2FmxCell%3E%3CmxCell%20id%3D%227%22%20value%3D%22PS%22%20style%3D%22rounded%3D1%3BwhiteSpace%3Dwrap%3Bhtml%3D1%3BfillColor%3D%23d5e8d4%3BstrokeColor%3D%2382b366%3Bshadow%3D1%3B%22%20vertex%3D%221%22%20parent%3D%222%22%3E%3CmxGeometry%20x%3D%2230%22%20y%3D%2230%22%20width%3D%22120%22%20height%3D%2260%22%20as%3D%22geometry%22%2F%3E%3C%2FmxCell%3E%3C%2Froot%3E%3C%2FmxGraphModel%3E&lt;/span&gt;" style="rounded=1;whiteSpace=wrap;html=1;fillColor=#d5e8d4;strokeColor=#82b366;shadow=1;" vertex="1" parent="tp5nq1VoE5CaEKhNv_x4-22">
          <mxGeometry x="30" y="30" width="120" height="60" as="geometry" />
        </mxCell>
        <mxCell id="tp5nq1VoE5CaEKhNv_x4-28" value="" style="group" vertex="1" connectable="0" parent="1">
          <mxGeometry x="160" y="690" width="150" height="90" as="geometry" />
        </mxCell>
        <mxCell id="tp5nq1VoE5CaEKhNv_x4-29" value="Profile" style="rounded=1;whiteSpace=wrap;html=1;fillColor=#d5e8d4;strokeColor=#82b366;shadow=1;" vertex="1" parent="tp5nq1VoE5CaEKhNv_x4-28">
          <mxGeometry width="120" height="60" as="geometry" />
        </mxCell>
        <mxCell id="tp5nq1VoE5CaEKhNv_x4-30" style="edgeStyle=orthogonalEdgeStyle;rounded=0;orthogonalLoop=1;jettySize=auto;html=1;exitX=0.5;exitY=1;exitDx=0;exitDy=0;strokeColor=#000000;" edge="1" parent="tp5nq1VoE5CaEKhNv_x4-28" source="tp5nq1VoE5CaEKhNv_x4-29" target="tp5nq1VoE5CaEKhNv_x4-29">
          <mxGeometry relative="1" as="geometry" />
        </mxCell>
        <mxCell id="tp5nq1VoE5CaEKhNv_x4-31" value="Profile" style="rounded=1;whiteSpace=wrap;html=1;fillColor=#d5e8d4;strokeColor=#82b366;shadow=1;" vertex="1" parent="tp5nq1VoE5CaEKhNv_x4-28">
          <mxGeometry x="10" y="10" width="120" height="60" as="geometry" />
        </mxCell>
        <mxCell id="tp5nq1VoE5CaEKhNv_x4-32" value="Profile" style="rounded=1;whiteSpace=wrap;html=1;fillColor=#d5e8d4;strokeColor=#82b366;shadow=1;" vertex="1" parent="tp5nq1VoE5CaEKhNv_x4-28">
          <mxGeometry x="20" y="20" width="120" height="60" as="geometry" />
        </mxCell>
        <mxCell id="tp5nq1VoE5CaEKhNv_x4-33" value="HPS" style="rounded=1;whiteSpace=wrap;html=1;fillColor=#d5e8d4;strokeColor=#82b366;shadow=1;" vertex="1" parent="tp5nq1VoE5CaEKhNv_x4-28">
          <mxGeometry x="30" y="30" width="120" height="60" as="geometry" />
        </mxCell>
        <mxCell id="tp5nq1VoE5CaEKhNv_x4-34" value="" style="group" vertex="1" connectable="0" parent="1">
          <mxGeometry x="370" y="690" width="150" height="90" as="geometry" />
        </mxCell>
        <mxCell id="tp5nq1VoE5CaEKhNv_x4-35" value="Profile" style="rounded=1;whiteSpace=wrap;html=1;fillColor=#d5e8d4;strokeColor=#82b366;shadow=1;" vertex="1" parent="tp5nq1VoE5CaEKhNv_x4-34">
          <mxGeometry width="120" height="60" as="geometry" />
        </mxCell>
        <mxCell id="tp5nq1VoE5CaEKhNv_x4-36" style="edgeStyle=orthogonalEdgeStyle;rounded=0;orthogonalLoop=1;jettySize=auto;html=1;exitX=0.5;exitY=1;exitDx=0;exitDy=0;strokeColor=#000000;" edge="1" parent="tp5nq1VoE5CaEKhNv_x4-34" source="tp5nq1VoE5CaEKhNv_x4-35" target="tp5nq1VoE5CaEKhNv_x4-35">
          <mxGeometry relative="1" as="geometry" />
        </mxCell>
        <mxCell id="tp5nq1VoE5CaEKhNv_x4-37" value="Profile" style="rounded=1;whiteSpace=wrap;html=1;fillColor=#d5e8d4;strokeColor=#82b366;shadow=1;" vertex="1" parent="tp5nq1VoE5CaEKhNv_x4-34">
          <mxGeometry x="10" y="10" width="120" height="60" as="geometry" />
        </mxCell>
        <mxCell id="tp5nq1VoE5CaEKhNv_x4-38" value="Profile" style="rounded=1;whiteSpace=wrap;html=1;fillColor=#d5e8d4;strokeColor=#82b366;shadow=1;" vertex="1" parent="tp5nq1VoE5CaEKhNv_x4-34">
          <mxGeometry x="20" y="20" width="120" height="60" as="geometry" />
        </mxCell>
        <mxCell id="tp5nq1VoE5CaEKhNv_x4-39" value="MSC" style="rounded=1;whiteSpace=wrap;html=1;fillColor=#d5e8d4;strokeColor=#82b366;shadow=1;" vertex="1" parent="tp5nq1VoE5CaEKhNv_x4-34">
          <mxGeometry x="30" y="30" width="120" height="60" as="geometry" />
        </mxCell>
        <mxCell id="tp5nq1VoE5CaEKhNv_x4-40" value="" style="group" vertex="1" connectable="0" parent="1">
          <mxGeometry x="540" y="570" width="150" height="90" as="geometry" />
        </mxCell>
        <mxCell id="tp5nq1VoE5CaEKhNv_x4-41" value="Profile" style="rounded=1;whiteSpace=wrap;html=1;fillColor=#d5e8d4;strokeColor=#82b366;shadow=1;" vertex="1" parent="tp5nq1VoE5CaEKhNv_x4-40">
          <mxGeometry width="120" height="60" as="geometry" />
        </mxCell>
        <mxCell id="tp5nq1VoE5CaEKhNv_x4-42" style="edgeStyle=orthogonalEdgeStyle;rounded=0;orthogonalLoop=1;jettySize=auto;html=1;exitX=0.5;exitY=1;exitDx=0;exitDy=0;strokeColor=#000000;" edge="1" parent="tp5nq1VoE5CaEKhNv_x4-40" source="tp5nq1VoE5CaEKhNv_x4-41" target="tp5nq1VoE5CaEKhNv_x4-41">
          <mxGeometry relative="1" as="geometry" />
        </mxCell>
        <mxCell id="tp5nq1VoE5CaEKhNv_x4-43" value="Profile" style="rounded=1;whiteSpace=wrap;html=1;fillColor=#d5e8d4;strokeColor=#82b366;shadow=1;" vertex="1" parent="tp5nq1VoE5CaEKhNv_x4-40">
          <mxGeometry x="10" y="10" width="120" height="60" as="geometry" />
        </mxCell>
        <mxCell id="tp5nq1VoE5CaEKhNv_x4-44" value="Profile" style="rounded=1;whiteSpace=wrap;html=1;fillColor=#d5e8d4;strokeColor=#82b366;shadow=1;" vertex="1" parent="tp5nq1VoE5CaEKhNv_x4-40">
          <mxGeometry x="20" y="20" width="120" height="60" as="geometry" />
        </mxCell>
        <mxCell id="tp5nq1VoE5CaEKhNv_x4-45" value="OP" style="rounded=1;whiteSpace=wrap;html=1;fillColor=#d5e8d4;strokeColor=#82b366;shadow=1;" vertex="1" parent="tp5nq1VoE5CaEKhNv_x4-40">
          <mxGeometry x="30" y="30" width="120" height="60" as="geometry" />
        </mxCell>
        <mxCell id="tp5nq1VoE5CaEKhNv_x4-46" value="" style="group" vertex="1" connectable="0" parent="1">
          <mxGeometry x="550" y="700" width="150" height="90" as="geometry" />
        </mxCell>
        <mxCell id="tp5nq1VoE5CaEKhNv_x4-47" value="Profile" style="rounded=1;whiteSpace=wrap;html=1;fillColor=#d5e8d4;strokeColor=#82b366;shadow=1;" vertex="1" parent="tp5nq1VoE5CaEKhNv_x4-46">
          <mxGeometry width="120" height="60" as="geometry" />
        </mxCell>
        <mxCell id="tp5nq1VoE5CaEKhNv_x4-48" style="edgeStyle=orthogonalEdgeStyle;rounded=0;orthogonalLoop=1;jettySize=auto;html=1;exitX=0.5;exitY=1;exitDx=0;exitDy=0;strokeColor=#000000;" edge="1" parent="tp5nq1VoE5CaEKhNv_x4-46" source="tp5nq1VoE5CaEKhNv_x4-47" target="tp5nq1VoE5CaEKhNv_x4-47">
          <mxGeometry relative="1" as="geometry" />
        </mxCell>
        <mxCell id="tp5nq1VoE5CaEKhNv_x4-49" value="Profile" style="rounded=1;whiteSpace=wrap;html=1;fillColor=#d5e8d4;strokeColor=#82b366;shadow=1;" vertex="1" parent="tp5nq1VoE5CaEKhNv_x4-46">
          <mxGeometry x="10" y="10" width="120" height="60" as="geometry" />
        </mxCell>
        <mxCell id="tp5nq1VoE5CaEKhNv_x4-50" value="Profile" style="rounded=1;whiteSpace=wrap;html=1;fillColor=#d5e8d4;strokeColor=#82b366;shadow=1;" vertex="1" parent="tp5nq1VoE5CaEKhNv_x4-46">
          <mxGeometry x="20" y="20" width="120" height="60" as="geometry" />
        </mxCell>
        <mxCell id="tp5nq1VoE5CaEKhNv_x4-51" value="LTC" style="rounded=1;whiteSpace=wrap;html=1;fillColor=#d5e8d4;strokeColor=#82b366;shadow=1;" vertex="1" parent="tp5nq1VoE5CaEKhNv_x4-46">
          <mxGeometry x="30" y="30" width="120" height="60" as="geometry" />
        </mxCell>
        <mxCell id="tp5nq1VoE5CaEKhNv_x4-52" value="" style="group" vertex="1" connectable="0" parent="1">
          <mxGeometry x="710" y="570" width="150" height="90" as="geometry" />
        </mxCell>
        <mxCell id="tp5nq1VoE5CaEKhNv_x4-53" value="Profile" style="rounded=1;whiteSpace=wrap;html=1;fillColor=#d5e8d4;strokeColor=#82b366;shadow=1;" vertex="1" parent="tp5nq1VoE5CaEKhNv_x4-52">
          <mxGeometry width="120" height="60" as="geometry" />
        </mxCell>
        <mxCell id="tp5nq1VoE5CaEKhNv_x4-54" style="edgeStyle=orthogonalEdgeStyle;rounded=0;orthogonalLoop=1;jettySize=auto;html=1;exitX=0.5;exitY=1;exitDx=0;exitDy=0;strokeColor=#000000;" edge="1" parent="tp5nq1VoE5CaEKhNv_x4-52" source="tp5nq1VoE5CaEKhNv_x4-53" target="tp5nq1VoE5CaEKhNv_x4-53">
          <mxGeometry relative="1" as="geometry" />
        </mxCell>
        <mxCell id="tp5nq1VoE5CaEKhNv_x4-55" value="Profile" style="rounded=1;whiteSpace=wrap;html=1;fillColor=#d5e8d4;strokeColor=#82b366;shadow=1;" vertex="1" parent="tp5nq1VoE5CaEKhNv_x4-52">
          <mxGeometry x="10" y="10" width="120" height="60" as="geometry" />
        </mxCell>
        <mxCell id="tp5nq1VoE5CaEKhNv_x4-56" value="Profile" style="rounded=1;whiteSpace=wrap;html=1;fillColor=#d5e8d4;strokeColor=#82b366;shadow=1;" vertex="1" parent="tp5nq1VoE5CaEKhNv_x4-52">
          <mxGeometry x="20" y="20" width="120" height="60" as="geometry" />
        </mxCell>
        <mxCell id="tp5nq1VoE5CaEKhNv_x4-57" value="NHSN" style="rounded=1;whiteSpace=wrap;html=1;fillColor=#d5e8d4;strokeColor=#82b366;shadow=1;" vertex="1" parent="tp5nq1VoE5CaEKhNv_x4-52">
          <mxGeometry x="30" y="30" width="120" height="60" as="geometry" />
        </mxCell>
        <mxCell id="tp5nq1VoE5CaEKhNv_x4-58" value="" style="group" vertex="1" connectable="0" parent="1">
          <mxGeometry x="720" y="700" width="150" height="90" as="geometry" />
        </mxCell>
        <mxCell id="tp5nq1VoE5CaEKhNv_x4-59" value="Profile" style="rounded=1;whiteSpace=wrap;html=1;fillColor=#d5e8d4;strokeColor=#82b366;shadow=1;" vertex="1" parent="tp5nq1VoE5CaEKhNv_x4-58">
          <mxGeometry width="120" height="60" as="geometry" />
        </mxCell>
        <mxCell id="tp5nq1VoE5CaEKhNv_x4-60" style="edgeStyle=orthogonalEdgeStyle;rounded=0;orthogonalLoop=1;jettySize=auto;html=1;exitX=0.5;exitY=1;exitDx=0;exitDy=0;strokeColor=#000000;" edge="1" parent="tp5nq1VoE5CaEKhNv_x4-58" source="tp5nq1VoE5CaEKhNv_x4-59" target="tp5nq1VoE5CaEKhNv_x4-59">
          <mxGeometry relative="1" as="geometry" />
        </mxCell>
        <mxCell id="tp5nq1VoE5CaEKhNv_x4-61" value="Profile" style="rounded=1;whiteSpace=wrap;html=1;fillColor=#d5e8d4;strokeColor=#82b366;shadow=1;" vertex="1" parent="tp5nq1VoE5CaEKhNv_x4-58">
          <mxGeometry x="10" y="10" width="120" height="60" as="geometry" />
        </mxCell>
        <mxCell id="tp5nq1VoE5CaEKhNv_x4-62" value="Profile" style="rounded=1;whiteSpace=wrap;html=1;fillColor=#d5e8d4;strokeColor=#82b366;shadow=1;" vertex="1" parent="tp5nq1VoE5CaEKhNv_x4-58">
          <mxGeometry x="20" y="20" width="120" height="60" as="geometry" />
        </mxCell>
        <mxCell id="tp5nq1VoE5CaEKhNv_x4-63" value="Rhapsody" style="rounded=1;whiteSpace=wrap;html=1;fillColor=#d5e8d4;strokeColor=#82b366;shadow=1;" vertex="1" parent="tp5nq1VoE5CaEKhNv_x4-58">
          <mxGeometry x="30" y="30" width="120" height="60" as="geometry" />
        </mxCell>
        <mxCell id="tp5nq1VoE5CaEKhNv_x4-64" value="" style="group" vertex="1" connectable="0" parent="1">
          <mxGeometry x="900" y="570" width="150" height="90" as="geometry" />
        </mxCell>
        <mxCell id="tp5nq1VoE5CaEKhNv_x4-65" value="Profile" style="rounded=1;whiteSpace=wrap;html=1;fillColor=#d5e8d4;strokeColor=#82b366;shadow=1;" vertex="1" parent="tp5nq1VoE5CaEKhNv_x4-64">
          <mxGeometry width="120" height="60" as="geometry" />
        </mxCell>
        <mxCell id="tp5nq1VoE5CaEKhNv_x4-66" style="edgeStyle=orthogonalEdgeStyle;rounded=0;orthogonalLoop=1;jettySize=auto;html=1;exitX=0.5;exitY=1;exitDx=0;exitDy=0;strokeColor=#000000;" edge="1" parent="tp5nq1VoE5CaEKhNv_x4-64" source="tp5nq1VoE5CaEKhNv_x4-65" target="tp5nq1VoE5CaEKhNv_x4-65">
          <mxGeometry relative="1" as="geometry" />
        </mxCell>
        <mxCell id="tp5nq1VoE5CaEKhNv_x4-67" value="Profile" style="rounded=1;whiteSpace=wrap;html=1;fillColor=#d5e8d4;strokeColor=#82b366;shadow=1;" vertex="1" parent="tp5nq1VoE5CaEKhNv_x4-64">
          <mxGeometry x="10" y="10" width="120" height="60" as="geometry" />
        </mxCell>
        <mxCell id="tp5nq1VoE5CaEKhNv_x4-68" value="Profile" style="rounded=1;whiteSpace=wrap;html=1;fillColor=#d5e8d4;strokeColor=#82b366;shadow=1;" vertex="1" parent="tp5nq1VoE5CaEKhNv_x4-64">
          <mxGeometry x="20" y="20" width="120" height="60" as="geometry" />
        </mxCell>
        <mxCell id="tp5nq1VoE5CaEKhNv_x4-69" value="Rhapsody" style="rounded=1;whiteSpace=wrap;html=1;fillColor=#d5e8d4;strokeColor=#82b366;shadow=1;" vertex="1" parent="tp5nq1VoE5CaEKhNv_x4-64">
          <mxGeometry x="30" y="30" width="120" height="60" as="geometry" />
        </mxCell>
      </root>
    </mxGraphModel>
  </diagram>
</mxfile>
